<svg width="960" height="640" xmlns="http://www.w3.org/2000/svg" font-family="'Segoe UI',Tahoma,Geneva,Verdana,sans-serif">
  <rect width="960" height="640" fill="#111827"/>

  <!-- NAV -->
  <rect width="960" height="58" fill="#14532d"/>
  <text x="22" y="37" fill="white" font-size="20" font-weight="700">⛳ Urban Golf BA</text>
  <text x="760" y="37" fill="#fbbf24" font-size="13">⚙ Admin panel</text>
  <text x="870" y="37" fill="#bbf7d0" font-size="13">Odhlásiť</text>

  <!-- Title & action buttons -->
  <text x="40" y="88" fill="white" font-size="20" font-weight="700">Admin — Správa ihrísk</text>
  <rect x="634" y="68" width="130" height="32" rx="7" fill="#1d4ed8"/>
  <text x="699" y="88" fill="white" font-size="13" text-anchor="middle">⬆ Import JSON</text>
  <rect x="780" y="68" width="140" height="32" rx="7" fill="#16a34a"/>
  <text x="850" y="88" fill="white" font-size="13" text-anchor="middle">+ Nové ihrisko</text>

  <!-- ===== COURSE 1 ===== -->
  <rect x="40" y="110" width="880" height="222" rx="12" fill="#1f2937"/>
  <rect x="40" y="110" width="880" height="5" rx="3" fill="#16a34a"/>
  <!-- Course header -->
  <text x="62" y="140" fill="white" font-size="15" font-weight="700">Údery medzi vežami – Bratislavská mestská odyssea</text>
  <rect x="62" y="148" width="64" height="20" rx="10" fill="#14532d"/>
  <text x="94" y="162" fill="#86efac" font-size="10" text-anchor="middle">Aktívne</text>
  <text x="138" y="162" fill="#9ca3af" font-size="12">9 jamiek · Par 53 · Bratislava</text>
  <!-- Action buttons -->
  <rect x="574" y="126" width="72" height="26" rx="5" fill="#374151"/>
  <text x="610" y="143" fill="white" font-size="11" text-anchor="middle">✏ Upraviť</text>
  <rect x="656" y="126" width="80" height="26" rx="5" fill="#374151"/>
  <text x="696" y="143" fill="white" font-size="11" text-anchor="middle">+ Jamka</text>
  <rect x="746" y="126" width="80" height="26" rx="5" fill="#0f4c3a"/>
  <text x="786" y="143" fill="#86efac" font-size="11" text-anchor="middle">⬇ Export</text>
  <rect x="836" y="126" width="64" height="26" rx="5" fill="#7f1d1d"/>
  <text x="868" y="143" fill="#fca5a5" font-size="11" text-anchor="middle">🗑 Zmazať</text>
  <!-- Hole table header -->
  <rect x="62" y="178" width="836" height="26" rx="4" fill="#374151"/>
  <text x="78" y="195" fill="#9ca3af" font-size="11">#</text>
  <text x="106" y="195" fill="#9ca3af" font-size="11">Názov jamky</text>
  <text x="380" y="195" fill="#9ca3af" font-size="11">Par</text>
  <text x="430" y="195" fill="#9ca3af" font-size="11">Štartové súradnice</text>
  <text x="630" y="195" fill="#9ca3af" font-size="11">Cieľové súradnice</text>
  <text x="820" y="195" fill="#9ca3af" font-size="11">Akcia</text>
  <!-- Holes -->
  <rect x="62" y="206" width="836" height="25" rx="2" fill="#111827"/>
  <text x="78" y="222" fill="#6b7280" font-size="11">1</text>
  <text x="106" y="222" fill="white" font-size="11">Messerschmidt Square</text>
  <text x="380" y="222" fill="#d1d5db" font-size="11">4</text>
  <text x="430" y="222" fill="#6b7280" font-size="11">48.1417, 17.0948</text>
  <text x="630" y="222" fill="#6b7280" font-size="11">48.1409, 17.0947</text>
  <rect x="822" y="208" width="70" height="20" rx="4" fill="#1d4ed8"/>
  <text x="857" y="221" fill="white" font-size="10" text-anchor="middle">✏ Upraviť</text>
  <rect x="62" y="233" width="836" height="25" rx="2" fill="#1f2937"/>
  <text x="78" y="249" fill="#6b7280" font-size="11">7</text>
  <text x="106" y="249" fill="white" font-size="11">Ľudovít Štúr Memorial</text>
  <text x="380" y="249" fill="#d1d5db" font-size="11">7</text>
  <text x="430" y="249" fill="#6b7280" font-size="11">48.1420, 17.1095</text>
  <text x="630" y="249" fill="#6b7280" font-size="11">48.1402, 17.1099</text>
  <rect x="822" y="235" width="70" height="20" rx="4" fill="#1d4ed8"/>
  <text x="857" y="248" fill="white" font-size="10" text-anchor="middle">✏ Upraviť</text>
  <rect x="62" y="260" width="836" height="25" rx="2" fill="#111827"/>
  <text x="78" y="276" fill="#6b7280" font-size="11">8</text>
  <text x="106" y="276" fill="white" font-size="11">Milan Rastislav Štefánik (Par 10)</text>
  <text x="380" y="276" fill="#fbbf24" font-size="11">10</text>
  <text x="430" y="276" fill="#6b7280" font-size="11">48.1398, 17.1108</text>
  <text x="630" y="276" fill="#6b7280" font-size="11">48.1396, 17.1231</text>
  <rect x="822" y="262" width="70" height="20" rx="4" fill="#1d4ed8"/>
  <text x="857" y="275" fill="white" font-size="10" text-anchor="middle">✏ Upraviť</text>
  <text x="106" y="314" fill="#9ca3af" font-size="11">... a ďalších 6 jamiek</text>

  <!-- ===== COURSE 2 ===== -->
  <rect x="40" y="346" width="880" height="180" rx="12" fill="#1f2937"/>
  <rect x="40" y="346" width="880" height="5" rx="3" fill="#16a34a"/>
  <text x="62" y="376" fill="white" font-size="15" font-weight="700">Urban Golf Bratislava – Sad Janka Kráľa</text>
  <rect x="62" y="384" width="64" height="20" rx="10" fill="#14532d"/>
  <text x="94" y="398" fill="#86efac" font-size="10" text-anchor="middle">Aktívne</text>
  <text x="138" y="398" fill="#9ca3af" font-size="12">9 jamiek · Par 56 · Bratislava</text>
  <rect x="574" y="362" width="72" height="26" rx="5" fill="#374151"/>
  <text x="610" y="379" fill="white" font-size="11" text-anchor="middle">✏ Upraviť</text>
  <rect x="656" y="362" width="80" height="26" rx="5" fill="#374151"/>
  <text x="696" y="379" fill="white" font-size="11" text-anchor="middle">+ Jamka</text>
  <rect x="746" y="362" width="80" height="26" rx="5" fill="#0f4c3a"/>
  <text x="786" y="379" fill="#86efac" font-size="11" text-anchor="middle">⬇ Export</text>
  <rect x="836" y="362" width="64" height="26" rx="5" fill="#7f1d1d"/>
  <text x="868" y="379" fill="#fca5a5" font-size="11" text-anchor="middle">🗑 Zmazať</text>
  <!-- Hole table header -->
  <rect x="62" y="414" width="836" height="26" rx="4" fill="#374151"/>
  <text x="78" y="431" fill="#9ca3af" font-size="11">#</text>
  <text x="106" y="431" fill="#9ca3af" font-size="11">Názov jamky</text>
  <text x="380" y="431" fill="#9ca3af" font-size="11">Par</text>
  <text x="430" y="431" fill="#9ca3af" font-size="11">Štartové súradnice</text>
  <text x="630" y="431" fill="#9ca3af" font-size="11">Cieľové súradnice</text>
  <rect x="62" y="442" width="836" height="25" rx="2" fill="#111827"/>
  <text x="78" y="458" fill="#6b7280" font-size="11">1</text>
  <text x="106" y="458" fill="white" font-size="11">Lev (Lion monument)</text>
  <text x="380" y="458" fill="#d1d5db" font-size="11">5</text>
  <text x="430" y="458" fill="#6b7280" font-size="11">48.xxx, 17.xxx</text>
  <text x="630" y="458" fill="#6b7280" font-size="11">48.xxx, 17.xxx</text>
  <rect x="822" y="444" width="70" height="20" rx="4" fill="#1d4ed8"/>
  <text x="857" y="457" fill="white" font-size="10" text-anchor="middle">✏ Upraviť</text>
  <rect x="62" y="469" width="836" height="25" rx="2" fill="#1f2937"/>
  <text x="78" y="485" fill="#6b7280" font-size="11">7</text>
  <text x="106" y="485" fill="white" font-size="11">Janko Kráľ (socha básnika)</text>
  <text x="380" y="485" fill="#fbbf24" font-size="11">8</text>
  <text x="430" y="485" fill="#6b7280" font-size="11">48.xxx, 17.xxx</text>
  <text x="630" y="485" fill="#6b7280" font-size="11">48.xxx, 17.xxx</text>
  <rect x="822" y="471" width="70" height="20" rx="4" fill="#1d4ed8"/>
  <text x="857" y="484" fill="white" font-size="10" text-anchor="middle">✏ Upraviť</text>
  <text x="106" y="514" fill="#9ca3af" font-size="11">... a ďalších 7 jamiek</text>

  <!-- Stats strip -->
  <rect x="40" y="540" width="880" height="64" rx="10" fill="#1f2937"/>
  <rect x="62" y="554" width="160" height="38" rx="6" fill="#111827"/>
  <text x="142" y="571" fill="#9ca3af" font-size="11" text-anchor="middle">Ihriská</text>
  <text x="142" y="585" fill="white" font-size="18" font-weight="700" text-anchor="middle">2</text>
  <rect x="242" y="554" width="160" height="38" rx="6" fill="#111827"/>
  <text x="322" y="571" fill="#9ca3af" font-size="11" text-anchor="middle">Jamiek celkom</text>
  <text x="322" y="585" fill="white" font-size="18" font-weight="700" text-anchor="middle">18</text>
  <rect x="422" y="554" width="160" height="38" rx="6" fill="#111827"/>
  <text x="502" y="571" fill="#9ca3af" font-size="11" text-anchor="middle">Odohraných kôl</text>
  <text x="502" y="585" fill="white" font-size="18" font-weight="700" text-anchor="middle">37</text>
  <rect x="602" y="554" width="160" height="38" rx="6" fill="#111827"/>
  <text x="682" y="571" fill="#9ca3af" font-size="11" text-anchor="middle">Registrovaní hráči</text>
  <text x="682" y="585" fill="white" font-size="18" font-weight="700" text-anchor="middle">14</text>
  <rect x="782" y="554" width="118" height="38" rx="6" fill="#111827"/>
  <text x="841" y="571" fill="#9ca3af" font-size="11" text-anchor="middle">Tímy</text>
  <text x="841" y="585" fill="white" font-size="18" font-weight="700" text-anchor="middle">3</text>

  <!-- Footer -->
  <rect y="612" width="960" height="28" fill="#1f2937"/>
  <text x="480" y="630" fill="#6b7280" font-size="12" text-anchor="middle">Urban Golf Bratislava © 2026</text>
</svg>
